<svg xmlns="http://www.w3.org/2000/svg" viewBox="0 0 1260 360" role="img" aria-labelledby="title desc">
  <title id="title">BarrelDrop</title>
  <desc id="desc">BarrelDrop Delivery Services logo</desc>
  <g fill="#2b2d47">
    <g transform="translate(18 16)">
      <circle cx="170" cy="54" r="28"/>
      <rect x="238" y="36" width="62" height="62" rx="6" transform="rotate(8 269 67)"/>
      <path d="M124 118c16-24 30-34 50-34 23 0 37 14 44 34l12 27 66-31c8-4 18-1 22 7s2 18-6 23l-72 53c-11 8-27 6-36-5l-15-19-96 75c-8 6-19 5-25-3-6-8-5-19 3-25l83-66-66-1c-9 0-16-8-16-16s7-16 16-16h63l-18-30-47 11c-9 2-18-3-20-12-2-8 3-17 12-19l66-24c10-3 18-1 25 8l15 23z"/>
      <path d="M162 214l-16 13 18 23-42 45c-7 8-6 20 2 27 8 7 20 6 27-2l58-62c7-8 8-19 1-27l-31-39c-4-6-13-7-19-2z"/>
      <rect x="0" y="132" width="76" height="13" rx="6"/>
      <rect x="0" y="158" width="152" height="13" rx="6"/>
      <rect x="24" y="184" width="124" height="13" rx="6"/>
      <rect x="52" y="210" width="94" height="13" rx="6"/>
      <rect x="18" y="236" width="110" height="13" rx="6"/>
    </g>

    <text
      x="338"
      y="246"
      font-size="168"
      font-family="'Arial Black','Helvetica Neue',Arial,sans-serif"
      font-weight="900"
      letter-spacing="-2"
    >
      BarrelDrop
    </text>
    <text
      x="344"
      y="326"
      font-size="58"
      font-family="'Arial Narrow','Helvetica Neue',Arial,sans-serif"
      font-style="italic"
      font-weight="700"
      letter-spacing="20"
    >
      DELIVERY SERVICES
    </text>
  </g>
</svg>
