<svg xmlns="http://www.w3.org/2000/svg" viewBox="0 0 640 180" role="img" aria-labelledby="title desc">
  <title id="title">BarrelDrop</title>
  <desc id="desc">BarrelDrop Delivery Services logo</desc>
  <rect width="640" height="180" fill="#ffffff"/>
  <g fill="#2b2d47">
    <circle cx="62" cy="44" r="12"/>
    <path d="M94 56c-7-14-19-20-31-17-11 3-18 13-19 26H20c-5 0-9 4-9 9s4 9 9 9h39l-16 28c-2 4-1 9 3 12 4 2 9 1 12-2l27-30 21 19c4 3 10 3 13-1 4-4 4-9 0-13L94 56z"/>
    <rect x="14" y="87" width="58" height="8" rx="4"/>
    <rect x="6" y="102" width="52" height="8" rx="4"/>
    <rect x="20" y="117" width="42" height="8" rx="4"/>
  </g>
  <text x="128" y="96" fill="#2b2d47" font-size="64" font-family="Arial, sans-serif" font-weight="700">BarrelDrop</text>
  <text x="130" y="132" fill="#2b2d47" font-size="18" font-family="Arial, sans-serif" letter-spacing="8">DELIVERY SERVICES</text>
</svg>

